<svg width="27" height="38" viewBox="0 0 27 38" fill="none" xmlns="http://www.w3.org/2000/svg">
<g clip-path="url(#clip0_23502_574)">
<path d="M25.2175 4.10239C24.8932 3.60575 24.4194 3.59149 23.8795 3.57523C23.8183 3.57339 23.7563 3.57153 23.6936 3.56893C23.6458 3.56673 23.5931 3.56758 23.538 3.56846C23.319 3.57198 23.0629 3.57609 22.9339 3.39212C22.7843 3.17883 22.7985 2.76663 22.8102 2.42635C22.8139 2.31882 22.8173 2.21841 22.8153 2.1338C22.7943 1.34332 22.7504 0.503628 22.4453 0.22292C22.2152 0.0123098 21.5268 0.041487 20.892 0.0683954C20.6862 0.0771184 20.486 0.085603 20.3089 0.085603H6.79596C6.52389 0.085603 6.23869 0.0634489 5.95847 0.0416813C5.41245 -0.000733808 4.88533 -0.0416812 4.511 0.085603C3.96775 0.271231 3.93096 1.24667 3.89633 2.16519L3.89446 2.21461C3.86538 2.97288 3.67746 3.55799 3.05465 3.49906C2.33029 3.43161 1.6095 3.41035 1.28199 4.06594C0.89519 4.84161 0.974963 5.65358 1.11785 7.10792C1.13826 7.31567 1.15996 7.53652 1.18177 7.77225H25.4264C25.4403 7.59995 25.455 7.42986 25.4696 7.26253C25.5831 5.95406 25.682 4.81402 25.2175 4.10239Z" fill="#8047F8"/>
<path fill-rule="evenodd" clip-rule="evenodd" d="M3.06987 9.21467C3.44852 14.3395 3.82304 19.4701 4.19757 24.6009L4.1978 24.604C4.40115 27.3898 4.60451 30.1757 4.80853 32.9606H5.58212C5.63483 33.3965 5.69515 33.9347 5.75874 34.5021C5.88783 35.6539 6.03044 36.9264 6.15034 37.7083H6.2359C7.02387 37.42 12.4712 35.0916 12.4736 25.8218C12.4726 25.7954 12.4735 25.7689 12.4762 25.7427H11.1304C11.0653 25.7421 11.0021 25.7203 10.9507 25.6808C10.8993 25.6413 10.8624 25.5861 10.8458 25.5238C10.7146 25.1999 10.6089 24.8664 10.5295 24.5264C9.73777 24.9736 9.10906 25.6564 8.73296 26.4775C8.37594 25.6365 8.32921 24.6983 8.60093 23.8267C8.87266 22.9551 9.44556 22.2057 10.2195 21.7093C10.2295 19.0043 11.2423 16.3968 13.0661 14.3804L13.0946 14.3553C13.1476 14.3095 13.2155 14.284 13.2859 14.2834C13.3266 14.2838 13.3668 14.2925 13.4039 14.309C13.4415 14.3257 13.4751 14.35 13.5026 14.3804C15.3478 16.3996 16.3552 19.0321 16.3239 21.7531C17.1123 22.2356 17.6969 22.9845 17.9691 23.8608C18.2413 24.7371 18.1827 25.6813 17.8042 26.5181C17.4301 25.6957 16.8008 25.0123 16.0076 24.5671C15.9592 24.8966 15.8699 25.219 15.7419 25.527C15.6977 25.6583 15.6091 25.7427 15.5205 25.7427H14.0853C14.0876 25.7584 14.0892 25.7742 14.0901 25.7901L14.0907 25.7937V25.8014C14.0912 25.815 14.0912 25.8287 14.0907 25.8424C14.1104 35.3783 19.902 37.5428 20.3902 37.7083H20.5572C20.5998 36.9572 20.7386 35.9208 20.8739 34.9104C20.9671 34.2142 21.0587 33.5302 21.116 32.9606H21.8985C22.149 29.4527 22.4066 25.9546 22.6642 22.4564L22.6644 22.4545L22.6645 22.4535C22.994 17.9789 23.3235 13.5042 23.6381 9.0087H3.11998C3.06092 9.02024 3.06495 9.11685 3.06987 9.21467ZM13.2859 14.2834L13.2844 14.2834H13.2875L13.2859 14.2834Z" fill="#8047F8"/>
<path d="M32.3088 5.69821C32.3088 4.43316 32.7446 3.45274 33.6162 2.75696C34.5037 2.04537 35.8349 1.68958 37.6099 1.68958C38.7827 1.68958 39.7811 1.80027 40.6052 2.02165V5.29498C39.7177 5.02615 38.8381 4.89174 37.9665 4.89174C37.1107 4.89174 36.556 4.99453 36.3025 5.2001C36.0489 5.38985 35.9221 5.67449 35.9221 6.05401V14.0238C35.9221 14.7829 36.5164 15.1624 37.705 15.1624C38.9094 15.1624 39.8999 15.0438 40.6765 14.8066V18.0088C39.8207 18.246 38.7827 18.3646 37.5624 18.3646C35.7874 18.3646 34.4641 18.0167 33.5925 17.3209C32.7367 16.6251 32.3088 15.6447 32.3088 14.3796V5.69821Z" fill="#403937"/>
<path d="M47.6205 7.95159C47.6205 7.35069 47.2877 7.05024 46.6221 7.05024C45.9564 7.05024 45.6236 7.35069 45.6236 7.95159V14.5457C45.6236 15.1466 45.9564 15.447 46.6221 15.447C47.2877 15.447 47.6205 15.1466 47.6205 14.5457V7.95159ZM42.1054 7.83299C42.1054 6.63119 42.4778 5.69821 43.2227 5.03406C43.9834 4.35409 45.1165 4.01411 46.6221 4.01411C48.1276 4.01411 49.2528 4.35409 49.9977 5.03406C50.7584 5.69821 51.1387 6.63119 51.1387 7.83299V14.6643C51.1387 15.8661 50.7584 16.807 49.9977 17.4869C49.2528 18.1511 48.1276 18.4832 46.6221 18.4832C45.1165 18.4832 43.9834 18.1511 43.2227 17.4869C42.4778 16.807 42.1054 15.8661 42.1054 14.6643V7.83299Z" fill="#403937"/>
<path d="M53.4492 4.08527C53.4492 1.41284 54.8597 0.0766322 57.6806 0.0766322C58.0451 0.0766322 58.4809 0.116165 58.9881 0.195231V2.94672C58.7345 2.9151 58.4968 2.89928 58.2749 2.89928C57.4667 2.89928 57.0625 3.2788 57.0625 4.03783V4.25131H58.9881V7.05024H57.0625V18.246H53.4492V7.05024H52.0942V4.25131H53.4492V4.08527Z" fill="#403937"/>
<path d="M60.4601 4.08527C60.4601 1.41284 61.8705 0.0766322 64.6915 0.0766322C65.056 0.0766322 65.4918 0.116165 65.9989 0.195231V2.94672C65.7453 2.9151 65.5076 2.89928 65.2858 2.89928C64.4775 2.89928 64.0734 3.2788 64.0734 4.03783V4.25131H65.9989V7.05024H64.0734V18.246H60.4601V7.05024H59.1051V4.25131H60.4601V4.08527Z" fill="#403937"/>
<path d="M66.8291 14.261V7.83299C66.8291 6.63119 67.2015 5.69821 67.9464 5.03406C68.6912 4.35409 69.8164 4.01411 71.322 4.01411C74.2221 4.01411 75.6722 5.28707 75.6722 7.83299V12.6481H70.276V13.9764C70.276 14.4508 70.4028 14.7908 70.6563 14.9964C70.9258 15.1861 71.5042 15.281 72.3917 15.281C73.295 15.281 74.2776 15.1229 75.3394 14.8066V17.9376C74.2301 18.238 73.0415 18.3883 71.7736 18.3883C68.4773 18.3883 66.8291 17.0125 66.8291 14.261ZM70.276 9.92033H72.3679V7.88043C72.3679 7.27953 72.0193 6.97908 71.322 6.97908C70.6247 6.97908 70.276 7.27953 70.276 7.88043V9.92033Z" fill="#403937"/>
<path d="M77.09 14.261V7.83299C77.09 6.63119 77.4624 5.69821 78.2073 5.03406C78.9521 4.35409 80.0773 4.01411 81.5829 4.01411C84.483 4.01411 85.9331 5.28707 85.9331 7.83299V12.6481H80.5369V13.9764C80.5369 14.4508 80.6637 14.7908 80.9173 14.9964C81.1867 15.1861 81.7651 15.281 82.6526 15.281C83.5559 15.281 84.5385 15.1229 85.6003 14.8066V17.9376C84.491 18.238 83.3024 18.3883 82.0345 18.3883C78.7382 18.3883 77.09 17.0125 77.09 14.261ZM80.5369 9.92033H82.6288V7.88043C82.6288 7.27953 82.2802 6.97908 81.5829 6.97908C80.8856 6.97908 80.5369 7.27953 80.5369 7.88043V9.92033Z" fill="#403937"/>
<path d="M38.0305 26.9797C38.0305 25.8119 37.4128 25.2281 36.1775 25.2281H34.2075V35.874H36.1775C37.4128 35.874 38.0305 35.2771 38.0305 34.0834V26.9797ZM32.8226 24.0214H36.2555C37.2958 24.0214 38.0825 24.2874 38.6156 24.8194C39.1488 25.3513 39.4154 26.065 39.4154 26.9602V34.1224C39.4154 35.0436 39.1553 35.7702 38.6352 36.3022C38.115 36.8341 37.3348 37.1001 36.2945 37.1001H32.8226V24.0214Z" fill="#403937"/>
<path d="M41.6944 34.2781V28.8675C41.6944 27.9463 41.9545 27.2132 42.4746 26.6683C43.0078 26.1104 43.8075 25.8314 44.8737 25.8314C45.94 25.8314 46.7267 26.1104 47.2339 26.6683C47.754 27.2132 48.0141 27.9463 48.0141 28.8675V32.254H43.0598V34.2197C43.0598 34.8036 43.2418 35.2382 43.6059 35.5237C43.97 35.8091 44.5357 35.9518 45.3029 35.9518C46.0701 35.9518 46.8633 35.8351 47.6825 35.6015V36.886C47.0323 37.0936 46.2586 37.1974 45.3614 37.1974C42.9167 37.1974 41.6944 36.2243 41.6944 34.2781ZM43.0598 31.1057H46.6877V28.8675C46.6877 27.6479 46.0831 27.0381 44.8737 27.0381C43.6644 27.0381 43.0598 27.6479 43.0598 28.8675V31.1057Z" fill="#403937"/>
<path d="M50.3849 23.0872H51.7697V37.1001H50.3849V23.0872Z" fill="#403937"/>
<path d="M55.1438 24.7804C54.5847 24.7804 54.3051 24.482 54.3051 23.8852C54.3051 23.2883 54.5847 22.9899 55.1438 22.9899C55.716 22.9899 56.002 23.2883 56.002 23.8852C56.002 24.482 55.716 24.7804 55.1438 24.7804ZM54.4611 26.1039H55.846V37.1001H54.4611V26.1039Z" fill="#403937"/>
<path d="M62.9846 26.026H64.3889L61.9313 37.1001H59.9808L57.5231 26.026H58.947L60.0198 31.1057L60.9755 36.127C61.3656 33.9732 62.0353 30.6062 62.9846 26.026Z" fill="#403937"/>
<path d="M65.8663 34.2781V28.8675C65.8663 27.9463 66.1264 27.2132 66.6465 26.6683C67.1796 26.1104 67.9794 25.8314 69.0456 25.8314C70.1119 25.8314 70.8986 26.1104 71.4058 26.6683C71.9259 27.2132 72.186 27.9463 72.186 28.8675V32.254H67.2317V34.2197C67.2317 34.8036 67.4137 35.2382 67.7778 35.5237C68.1419 35.8091 68.7075 35.9518 69.4747 35.9518C70.2419 35.9518 71.0352 35.8351 71.8544 35.6015V36.886C71.2042 37.0936 70.4305 37.1974 69.5333 37.1974C67.0886 37.1974 65.8663 36.2243 65.8663 34.2781ZM67.2317 31.1057H70.8596V28.8675C70.8596 27.6479 70.2549 27.0381 69.0456 27.0381C67.8363 27.0381 67.2317 27.6479 67.2317 28.8675V31.1057Z" fill="#403937"/>
<path d="M78.1457 25.9676H78.6333V27.2911H77.9701C77.502 27.2911 77.0794 27.4143 76.7023 27.6609C76.5853 27.7387 76.3317 27.9139 75.9416 28.1864V37.1001H74.5567V26.026H75.8831V26.8629C75.9221 26.837 76.0196 26.7656 76.1757 26.6488C76.3447 26.5321 76.4422 26.4672 76.4682 26.4542C76.5073 26.4283 76.5918 26.3764 76.7218 26.2985C76.8649 26.2207 76.9689 26.1752 77.0339 26.1623C77.1119 26.1363 77.2159 26.1039 77.346 26.065C77.541 26.0001 77.8076 25.9676 78.1457 25.9676Z" fill="#403937"/>
<path d="M84.5668 26.026H85.9517L82.9089 40H81.5826L82.1872 37.1001H81.5045L79.0859 26.026H80.4903L81.6606 31.5339L82.5188 36.127C82.7789 34.596 83.0649 33.0649 83.377 31.5339L84.5668 26.026Z" fill="#403937"/>
</g>
<defs>
<clipPath id="clip0_23502_574">
<rect width="27" height="38" fill="white"/>
</clipPath>
</defs>
</svg>
